<svg xmlns="http://www.w3.org/2000/svg" viewBox="0 0 239 54">
    <defs>
        <style>
            .l-bg {
                fill: #e6ff28;
            }
            .l-n {
                fill: #071a3e;
            }
            .l-bg2 {
                fill: #e1e1e1;
            }
        </style>
    </defs>
    <g>
        <path class="l-bg" d="M16.1217,18H0V54H16.1217L47.9691,35.9818V0Z" />
        <path class="l-n"
            d="M32.4052,25.6469,30.5879,36.9991l-4.4802,2.561L22.0773,23.6489l4.7681-2.7245,1.8173,10.0989,2.1411-12.3512,3.2028-1.8345,2.1231,9.9173L37.929,14.6035l4.7862-2.7427L38.6847,32.3856l-4.4802,2.561Z" />
    </g>
    <g>
        <path class="l-bg2" d="M79.7986,18V54L47.9691,35.9818V0Z" />
        <path class="l-n"
            d="M57.7033,14.3672l10.6698,6.1029v4.5772l-6.4235-3.669v2.1251l6.2616,3.5782v4.5772l-6.2616-3.5782v2.3249l6.4235,3.6872v4.5772L57.6853,32.567Z" />
    </g>
    <g>
        <path class="l-bg" d="M79.7986,18V54L111.646,35.9818V0Z" />
        <path class="l-n"
            d="M89.4968,21.3785l8.5466-4.886c2.9146-1.6529,4.1746.1272,4.1746,2.2523a7.47055,7.47055,0,0,1-2.4113,5.5398c1.5113-.563,2.6813.5631,2.6813,2.9244a8.63307,8.63307,0,0,1-4.1567,7.3198l-8.8525,5.0495Zm7.6829,9.3542a2.131,2.131,0,0,0,.9896-1.7982c0-.6539-.3778-1.0353-.9896-.6902l-3.4186,1.9435v2.4884Zm-.1259-6.884a2.07554,2.07554,0,0,0,.8457-1.6529c0-.6357-.3959-.89-.8457-.6357L93.7611,23.431v2.2886Z" />
    </g>
    <g>
        <path class="l-bg2" d="M143.494,18V54L111.646,35.9818V0Z" />
        <path class="l-n"
            d="M123.162,26.9365a13.10862,13.10862,0,0,0,4.534,4.9405c.809.4541,1.565.5449,1.565-.1635s-.594-1.3986-1.979-2.5247c-2.321-1.8709-5.866-4.6136-5.866-9.1544,0-3.0878,1.979-4.7588,5.848-2.5611a16.94082,16.94082,0,0,1,5.974,5.9577l-2.286,2.5973a13.26,13.26,0,0,0-3.922-4.0504c-1.062-.5994-1.295-.2362-1.295.2179,0,.7084.575,1.2896,2.069,2.4703,2.321,1.8526,5.757,4.6861,5.757,8.8819,0,4.0141-2.303,5.0131-6.081,2.8517a17.45366,17.45366,0,0,1-6.55-6.6297Z" />
    </g>
    <g>
        <path class="l-bg" d="M143.494,18V54l31.847-18.0182V0Z" />
        <path class="l-n"
            d="M157.474,23.9576l-3.778,2.1614V21.3239l11.803-6.7387v4.7952l-3.761,2.1433V34.9283l-4.264,2.4339Z" />
    </g>
    <g>
        <path class="l-bg2" d="M207.171,18V54l-31.83-18.0182V0Z" />
        <path class="l-n"
            d="M184.967,14.4219l10.688,6.1029V25.102l-6.423-3.669v2.1251l6.261,3.5782v4.5772l-6.261-3.5782v2.3249l6.423,3.669v4.5772l-10.688-6.1029Z" />
    </g>
    <g>
        <path class="l-bg" d="M207.171,18V54L239,35.9818V0Z" />
        <path class="l-n"
            d="M223.346,30.2603l-1.547.8719v5.8486l-4.265,2.4339V21.2149l7.521-4.2866c3.293-1.8708,5.074-.0545,5.074,3.3603a11.11064,11.11064,0,0,1-2.537,6.9566l2.555,4.9768-4.858,2.7608Zm1.044-8.3733-2.591,1.4894v3.1967l2.591-1.4894a2.96549,2.96549,0,0,0,1.385-2.3975C225.793,21.6872,225.109,21.4692,224.39,21.887Z" />
    </g>
</svg>