<svg width="57" height="57" viewBox="0 0 57 57" fill="none" xmlns="http://www.w3.org/2000/svg">
<g clip-path="url(#clip0_407_1143)">
<path d="M28.5 57C44.2401 57 57 44.2401 57 28.5C57 12.7599 44.2401 0 28.5 0C12.7599 0 0 12.7599 0 28.5C0 44.2401 12.7599 57 28.5 57Z" fill="#2DBBAA"/>
<path d="M29.27 35.0199L30.57 33.8799C31.2 33.3299 32.12 33.2599 32.82 33.7099L36.8 36.2599C37.51 36.7099 37.83 37.5799 37.58 38.3899L36.9 40.6299C36.66 41.4199 35.93 41.9599 35.1 41.9599H34.55C32.8 41.9599 27.38 40.4699 21.66 34.7499C15.94 29.0299 14.74 24.1999 14.74 22.1499V21.5999C14.74 20.7699 15.28 20.0399 16.07 19.7999L18.31 19.1199C19.12 18.8699 19.99 19.1999 20.44 19.8999L22.99 23.8799C23.44 24.5899 23.37 25.5099 22.82 26.1299L21.68 27.4299" stroke="#E6FFFF" stroke-width="2" stroke-miterlimit="10"/>
<path d="M29.2 21.33C32.61 21.33 35.3699 24.09 35.3699 27.5" stroke="#E6FFFF" stroke-width="2" stroke-miterlimit="10"/>
<path d="M29.2 15.5699C35.79 15.5699 41.1399 20.9099 41.1399 27.5099" stroke="#E6FFFF" stroke-width="2" stroke-miterlimit="10"/>
</g>
<defs>
<clipPath id="clip0_407_1143">
<rect width="57" height="57" fill="white"/>
</clipPath>
</defs>
</svg>
