<svg width="50" height="50" viewBox="0 0 50 50" fill="none" xmlns="http://www.w3.org/2000/svg">
<g clip-path="url(#clip0_407_3670)">
<path d="M49.3492 30.606C52.4455 17.1541 44.0505 3.73916 30.5986 0.642942C17.1467 -2.45328 3.73172 5.94168 0.635502 19.3936C-2.46072 32.8455 5.93424 46.2605 19.3862 49.3567C32.8381 52.4529 46.253 44.058 49.3492 30.606Z" fill="#2DBBAA"/>
<path fill-rule="evenodd" clip-rule="evenodd" d="M36.7991 30.4639C36.176 30.1408 33.0834 28.583 32.5064 28.3637C31.9295 28.1445 31.5141 28.0406 31.0756 28.6638C30.6486 29.2869 29.4254 30.6947 29.0562 31.1101C28.6869 31.5255 28.3177 31.5717 27.683 31.2486C27.0599 30.9255 25.0289 30.2331 22.6403 28.0637C20.7825 26.3674 19.5362 24.2903 19.1785 23.6557C18.8208 23.021 19.1554 22.6864 19.467 22.3748C19.7555 22.0979 20.1016 21.6478 20.4247 21.2786C20.7478 20.9093 20.8517 20.6554 21.0709 20.2285C21.2902 19.8131 21.1863 19.4438 21.0248 19.1207C20.8748 18.8092 19.6401 15.682 19.1323 14.4127C18.6246 13.1433 18.0938 13.351 17.7245 13.3395C17.3553 13.3395 16.9399 13.2818 16.5129 13.2703C16.0859 13.2703 15.4051 13.4203 14.8166 14.0434C14.2281 14.6665 12.578 16.1782 12.5434 19.2823C12.5087 22.3863 14.7358 25.4097 15.0474 25.8366C15.359 26.2636 19.34 32.8872 25.7213 35.4835C32.1141 38.0799 32.1256 37.2375 33.2796 37.1452C34.4335 37.0529 37.0299 35.6566 37.5722 34.1911C38.1146 32.7256 38.1261 31.4563 37.9761 31.1909C37.8492 30.9485 37.4222 30.787 36.7991 30.4639Z" fill="white"/>
</g>
<defs>
<clipPath id="clip0_407_3670">
<rect width="50" height="50" fill="white"/>
</clipPath>
</defs>
</svg>
