<svg width="42" height="42" viewBox="0 0 42 42" fill="none" xmlns="http://www.w3.org/2000/svg">
<g clip-path="url(#clip0_442_826)">
<path d="M41.4535 25.7091C44.0543 14.4095 37.0025 3.14098 25.7029 0.54015C14.4033 -2.06068 3.13475 4.99109 0.53392 16.2907C-2.06691 27.5903 4.98486 38.8589 16.2845 41.4597C27.5841 44.0605 38.8526 37.0088 41.4535 25.7091Z" fill="#C7C7C7"/>
<path fill-rule="evenodd" clip-rule="evenodd" d="M8.24453 19.5224C15.0104 16.5133 19.5217 14.5285 21.7785 13.5704C28.2239 10.8334 29.5632 10.3577 30.4355 10.342C30.6271 10.3386 31.0567 10.3869 31.3353 10.6175C31.5699 10.812 31.6349 11.0751 31.6657 11.2596C31.6966 11.444 31.7351 11.8645 31.7043 12.1918C31.3551 15.9386 29.844 25.0303 29.0752 29.2269C28.7503 31.0025 28.1093 31.5974 27.4892 31.6559C26.1411 31.7829 25.1179 30.7462 23.8128 29.8724C21.7697 28.505 20.6165 27.6549 18.634 26.3201C16.3431 24.7784 17.8278 23.9316 19.134 22.5462C19.4755 22.1841 25.4142 16.6696 25.5287 16.1692C25.5431 16.1062 25.5563 15.8734 25.4208 15.7497C25.2853 15.626 25.0849 15.6688 24.9406 15.7025C24.7357 15.7497 21.4723 17.9515 15.1514 22.309C14.2251 22.9578 13.3858 23.2749 12.6347 23.2581C11.8064 23.2401 10.2116 22.7801 9.02762 22.3866C7.57378 21.9041 6.41951 21.6489 6.51974 20.8302C6.57261 20.4041 7.14754 19.9677 8.24673 19.5213L8.24453 19.5224Z" fill="white"/>
</g>
<defs>
<clipPath id="clip0_442_826">
<rect width="42" height="42" fill="white"/>
</clipPath>
</defs>
</svg>
