<svg width="42" height="42" viewBox="0 0 42 42" fill="none" xmlns="http://www.w3.org/2000/svg">
<g clip-path="url(#clip0_442_560)">
<path d="M32.7822 41.6881L21 42L9.33911 41.6881C4.38366 41.5495 0.381188 37.547 0.277228 32.5916L0 21L0.277228 9.40842C0.381188 4.45297 4.36634 0.450495 9.33911 0.311881L21 0L32.7822 0.311881C37.7896 0.450495 41.7921 4.50495 41.8441 9.49505L42 20.9827L41.8441 32.4876C41.7748 37.495 37.7723 41.5495 32.7822 41.6708" fill="#C7C7C7"/>
<path d="M31.5694 23.9802C30.6511 23.0445 29.6288 22.2475 28.5546 21.6237C29.213 21.1386 29.8541 20.6015 30.4605 19.995C32.5917 17.8119 33.9605 15.5074 34.3244 12.8044H29.7155C29.0051 15.9406 26.1462 19.0421 23.062 19.8911V12.8044H18.5224V25.2624C13.9308 23.6163 11.8516 18.0544 11.8516 13.0124V12.8044H7.31201V13.0124C7.31201 17.5173 8.52488 21.7797 10.7081 24.8292C13.2897 28.4158 17.3615 30.3044 23.01 30.3044H23.0447L23.0793 24.1015C26.1288 24.396 29.1957 27.3069 30.4432 30.3044H35.208C34.6363 28.0346 33.3887 25.8341 31.5868 23.9975" fill="white"/>
</g>
<defs>
<clipPath id="clip0_442_560">
<rect width="42" height="42" fill="white"/>
</clipPath>
</defs>
</svg>
