<svg width="50" height="51" viewBox="0 0 50 51" fill="none" xmlns="http://www.w3.org/2000/svg">
<path fill-rule="evenodd" clip-rule="evenodd" d="M25.2616 0.986816C11.8062 0.986816 0.898544 11.8945 0.898544 25.3385C0.898544 29.945 2.17243 34.2443 4.39035 37.9181L0 50.9868L13.4895 46.6647C16.9813 48.5983 20.9964 49.6902 25.2616 49.6902C38.717 49.6902 49.6247 38.7825 49.6247 25.3271C49.6133 11.8945 38.717 0.986816 25.2616 0.986816Z" fill="#30BF39"/>
<path fill-rule="evenodd" clip-rule="evenodd" d="M36.6813 30.8776C36.0671 30.5477 33.0758 28.9213 32.5071 28.6938C31.9497 28.4663 31.5289 28.3412 31.0967 28.9554C30.6645 29.5582 29.4133 30.9117 29.038 31.3212C28.6627 31.7193 28.2987 31.7648 27.6845 31.4235C27.0817 31.0937 25.0912 30.3544 22.8051 28.1478C21.0193 26.4304 19.8478 24.3489 19.5066 23.712C19.1654 23.075 19.5066 22.7566 19.8251 22.4495C20.1208 22.1765 20.4734 21.7443 20.8032 21.3917C21.1217 21.0391 21.2354 20.7889 21.4629 20.3794C21.6904 19.9699 21.5994 19.606 21.4516 19.2875C21.3037 18.969 20.1777 15.8639 19.7113 14.6014C19.245 13.3389 18.7104 13.5209 18.3465 13.5095C17.9825 13.4982 17.573 13.4299 17.1522 13.4185C16.7314 13.4072 16.0603 13.5323 15.4688 14.1351C14.8774 14.7379 13.2168 16.1824 13.1031 19.242C12.9893 22.3016 15.1049 25.3385 15.4006 25.7707C15.6963 26.2029 19.4384 32.8339 25.6713 35.5523C31.9042 38.282 31.9384 37.4517 33.0758 37.3835C34.2245 37.3266 36.8064 36.0186 37.3865 34.5855C37.9552 33.1524 38.0007 31.9126 37.8642 31.6396C37.6936 31.378 37.2841 31.2074 36.6813 30.8776Z" fill="white"/>
</svg>
